PathFileType	4	(X/Y/Z)	C:/Users/beibeiliu/ov580/test_trc\sequence.2_training_dense_left.trc
DataRate	CameraRate	NumFrames	NumMarkers	Units	OrigDataRate	OrigDataStartFrame	OrigNumFrames
120	120	10	19	mm	120	32	63
Frame#	Time	ThumbCMC			ThumbMCP			ThumbIP			ThumbTip			IndexMCP			IndexPIP			IndexTip			MiddleMCP			MiddlePIP			MiddleTip			RingMCP			RingPIP			RingTip			PinkyMCP			PinkyPIP			PinkyTip			BackHand1			BackHand2			BackHand3	
		X0	Y0	Z0	X1	Y1	Z1	X2	Y2	Z2	X3	Y3	Z3	X4	Y4	Z4	X5	Y5	Z5	X6	Y6	Z6	X7	Y7	Z7	X8	Y8	Z8	X9	Y9	Z9	X10	Y10	Z10	X11	Y11	Z11	X12	Y12	Z12	X13	Y13	Z13	X14	Y14	Z14	X15	Y15	Z15	X16	Y16	Z16	X17	Y17	Z17	X18	Y18	Z18	
31	0.258333	-150.104	19.7309	117.228	-128.167	10.2132	96.6169	-124.973	5.81823	72.7342	-122.617	-0.0476447	46.7759	-146.871	22.5709	37.9199	-141.414	16.4347	18.018	-141.17	13.5255	-8.75401	-163.852	25.1724	28.31	-160.596	19.2957	5.36262	-155.543	19.3693	-21.3353	-186.454	23.2148	31.8565	-181.493	18.5538	10.8764	-175.469	15.8721	-16.707	-205.514	20.0449	43.1991	-200.427	16.6763	18.813	-194.598	17.4795	-0.98871	-196.417	41.304	79.4756	-199.655	44.788	110.382	-164.307	41.3463	98.0006	
32	0.266667	-138.891	21.2001	121.732	-118.407	9.04223	107.372	-108.011	-3.30692	84.0513	-109.959	-15.2485	62.5725	-128.137	0.295052	52.1108	-124.33	-14.5856	30.5548	-123.367	-23.3101	7.20489	-148.699	-4.60809	39.8342	-142.206	-17.0839	19.9543	-133.788	-27.1434	-3.89536	-165.106	-6.94273	40.4349	-162.153	-18.8903	22.5712	-154.211	-29.9063	0.32153	-187.745	-9.73902	48.654	-176.529	-19.3067	32.3813	-170.134	-24.7176	8.99638	-184.564	24.232	76.6002	-189.981	37.8719	105.329	-159.992	33.6312	96.6819	
33	0.275	-136.905	33.985	121.496	-113.2	21.8143	108.313	-100.858	2.48442	87.8553	-97.253	-12.1783	76.3943	-119.646	-12.1732	62.0191	-109.689	-29.0746	47.9543	-102.645	-43.5098	29.282	-129.799	-24.9902	53.0117	-121.255	-40.4438	41.4061	-110.354	-53.8063	23.7297	-146.35	-31.6651	54.5393	-139.207	-46.4517	43.1565	-126.69	-61.8507	23.6635	-167.119	-37.2648	61.8119	-154.042	-47.6671	52.294	-149.672	-55.8032	32.0067	-175.845	5.72238	79.2934	-189.074	22.5428	97.1404	-158.903	28.1516	90.9684	
34	0.283333	-159.254	46.9744	110.827	-130.934	47.6085	99.4797	-113.309	31.8977	85.2184	-101.528	12.3441	74.8206	-119.532	2.2895	63.5792	-100.779	-16.3968	52.7428	-92.9068	-28.9001	41.279	-122.897	-18.3599	58.0362	-107.063	-33.4499	49.9941	-89.573	-46.9916	34.1703	-137.51	-32.1432	64.5419	-118.766	-41.9986	54.107	-102.758	-56.8644	39.7929	-154.261	-40.9668	79.1295	-134.573	-49.2612	65.6352	-123.176	-57.0543	48.5083	-178.705	-4.65692	82.2991	-201.608	9.63325	98.9795	-174.48	24.1476	86.046	
35	0.291667	-192.258	54.0964	104.306	-167.009	60.6281	86.6235	-146.916	54.4444	73.7791	-126.836	41.6756	64.485	-138.933	24.3714	53.3174	-114.375	18.4231	42.3094	-101.044	6.99274	33.3281	-133.717	-0.908252	53.3626	-112.475	-2.82898	43.8441	-92.7904	-9.42657	28.2612	-138.163	-15.652	63.0509	-117.498	-18.9071	51.3562	-99.5531	-23.9492	39.117	-145.152	-27.775	75.3499	-127.112	-29.2429	64.8808	-115.345	-36.7477	51.3166	-186.243	-9.58228	81.1261	-212.084	-4.06037	98.6323	-197.217	22.5645	84.9789	
36	0.3	-226.298	48.1364	97.7829	-209.334	62.1234	77.4838	-191.15	65.8526	60.679	-168.902	65.9131	44.351	-170.509	36.3531	42.7529	-152.296	39.5865	30.2059	-131.457	36.8112	15.87	-158.58	20.7731	42.9068	-140.591	26.6641	30.316	-118.412	23.934	13.8973	-151.725	6.27749	55.4972	-134.494	10.5638	43.4789	-114.099	12.5439	21.3839	-149.35	-3.19179	68.4096	-134.804	1.3151	56.1509	-119.634	-4.18922	37.6544	-193.489	-9.45381	83.8303	-215.293	-11.8891	100.289	-217.328	15.0264	82.5543	
37	0.308333	-244.956	36.2322	97.0683	-239.478	52.9642	73.0555	-227.699	61.223	54.2721	-210.014	65.8383	34.4846	-199.364	38.4639	31.1071	-186.597	46.4704	14.5022	-171.527	51.5733	-3.33916	-183.609	25.7378	35.5127	-169.044	35.3317	17.125	-152.328	39.1268	-3.0459	-169.617	16.2182	45.277	-157.837	26.1734	25.0797	-140.874	26.7566	4.01691	-162.957	7.132	63.0501	-150.684	15.2999	45.4168	-144.856	15.9129	25.3072	-203.606	-5.01491	82.6316	-213.79	-16.9518	105.087	-232.587	8.93693	80.9949	
38	0.316667	-256.001	24.0829	101.671	-260.552	42.7009	76.439	-252.238	48.108	50.3753	-236.596	49.9786	33.9299	-230.672	22.5686	30.6929	-222.212	32.1153	6.11529	-206.596	32.9942	-13.449	-214.673	13.8688	27.1575	-201.283	20.4147	4.95001	-188.672	23.5212	-21.5377	-196.57	7.48471	33.8896	-187.034	12.7104	14.0564	-177.481	15.6079	-8.92197	-183.015	2.06572	50.1663	-173.804	6.15086	32.0185	-167.875	5.07426	5.91598	-211.878	-13.9916	82.2172	-223.9	-20.6655	105.862	-246.886	-3.98062	85.9969	
39	0.325	-263.722	16.7186	104.757	-267.391	31.2149	81.2229	-265.3	33.5628	49.1725	-253.508	30.3046	25.1934	-252.968	3.22198	26.7778	-249.456	6.73019	7.64157	-239.784	6.08353	-19.2817	-236.598	-10.7003	23.1905	-231.407	-6.71944	-0.912111	-225.436	-8.34497	-23.6519	-223.647	-15.3431	31.1774	-216.327	-13.9174	6.77458	-210.808	-15.3423	-19.8642	-206.084	-21.1306	42.2843	-202.204	-18.5183	21.8836	-200.511	-19.7815	-3.33493	-233.237	-28.9137	81.955	-234.16	-31.9376	109.545	-261.755	-13.0082	93.997	
40	0.333333	-274.58	20.0573	103.497	-276.654	28.844	77.2687	-279.008	28.4099	48.7946	-272.527	21.6187	24.6316	-277.471	-9.07912	29.2625	-276.37	-6.82702	6.5575	-270.581	-14.0018	-16.4102	-266.426	-24.7371	25.7426	-265.417	-25.5361	1.99803	-267.532	-27.2525	-26.1767	-251.295	-34.4897	30.7226	-251.818	-35.0904	7.16328	-252.52	-35.8105	-22.1031	-236.621	-39.2371	43.8492	-234.428	-41.304	20.0816	-241.02	-42.7909	-3.89353	-252.403	-40.686	80.7206	-253.152	-37.8365	111.992	-276.199	-17.8211	97.1827	
